<svg width="32" height="32" viewBox="0 0 32 32" fill="none" xmlns="http://www.w3.org/2000/svg">
<path d="M16 11.8344C13.7063 11.8344 11.8344 13.7063 11.8344 16C11.8344 18.2938 13.7063 20.1656 16 20.1656C18.2938 20.1656 20.1657 18.2938 20.1657 16C20.1657 13.7063 18.2938 11.8344 16 11.8344ZM28.4938 16C28.4938 14.275 28.5094 12.5656 28.4125 10.8438C28.3157 8.84376 27.8594 7.06876 26.3969 5.60626C24.9313 4.14063 23.1594 3.68751 21.1594 3.59063C19.4344 3.49376 17.725 3.50938 16.0031 3.50938C14.2781 3.50938 12.5688 3.49376 10.8469 3.59063C8.8469 3.68751 7.0719 4.14376 5.6094 5.60626C4.14378 7.07188 3.69065 8.84376 3.59378 10.8438C3.4969 12.5688 3.51253 14.2781 3.51253 16C3.51253 17.7219 3.4969 19.4344 3.59378 21.1563C3.69065 23.1563 4.1469 24.9313 5.6094 26.3938C7.07503 27.8594 8.8469 28.3125 10.8469 28.4094C12.5719 28.5063 14.2813 28.4906 16.0031 28.4906C17.7282 28.4906 19.4375 28.5063 21.1594 28.4094C23.1594 28.3125 24.9344 27.8563 26.3969 26.3938C27.8625 24.9281 28.3157 23.1563 28.4125 21.1563C28.5125 19.4344 28.4938 17.725 28.4938 16ZM16 22.4094C12.4532 22.4094 9.59065 19.5469 9.59065 16C9.59065 12.4531 12.4532 9.59063 16 9.59063C19.5469 9.59063 22.4094 12.4531 22.4094 16C22.4094 19.5469 19.5469 22.4094 16 22.4094ZM22.6719 10.825C21.8438 10.825 21.175 10.1563 21.175 9.32813C21.175 8.50001 21.8438 7.83126 22.6719 7.83126C23.5 7.83126 24.1688 8.50001 24.1688 9.32813C24.169 9.52477 24.1305 9.71953 24.0553 9.90125C23.9802 10.083 23.8699 10.2481 23.7309 10.3871C23.5919 10.5262 23.4267 10.6364 23.245 10.7116C23.0633 10.7867 22.8685 10.8253 22.6719 10.825Z" fill="#1F1F1F"/>
</svg>
