<svg width="16" height="17" viewBox="0 0 16 17" fill="none" xmlns="http://www.w3.org/2000/svg">
<path d="M8.8742 5.60292L8.52064 5.95647C8.38001 5.81584 8.3361 5.60524 8.40881 5.42013L8.8742 5.60292ZM5.10296 9.37415L4.92016 8.90877C5.10528 8.83606 5.31588 8.87997 5.45651 9.0206L5.10296 9.37415ZM6.11581 10.387L6.33165 10.838C6.14039 10.9296 5.91219 10.8905 5.76226 10.7406L6.11581 10.387ZM9.88705 6.61577L10.2406 6.26222C10.3905 6.41215 10.4296 6.64035 10.3381 6.83161L9.88705 6.61577ZM5.18304 13.0196C8.77569 12.105 11.6051 9.27564 12.5197 5.68299L13.4888 5.9297C12.4838 9.87726 9.3773 12.9838 5.42975 13.9887L5.18304 13.0196ZM10.6667 3.66666H10V2.66666H10.6667V3.66666ZM3.16671 10.5V11.1667H2.16671V10.5H3.16671ZM8.40881 5.42013C8.6112 4.90484 8.74624 4.35559 8.803 3.78295L9.79812 3.8816C9.73216 4.54702 9.57513 5.18603 9.33958 5.78571L8.40881 5.42013ZM3.283 9.30296C3.85563 9.24619 4.40488 9.11116 4.92016 8.90877L5.28575 9.83954C4.68607 10.0751 4.04706 10.2321 3.38164 10.2981L3.283 9.30296ZM5.45651 9.0206L6.46937 10.0335L5.76226 10.7406L4.7494 9.72771L5.45651 9.0206ZM5.89998 9.93599C7.4444 9.1969 8.69694 7.94437 9.43603 6.39994L10.3381 6.83161C9.50045 8.5819 8.08194 10.0004 6.33165 10.838L5.89998 9.93599ZM9.5335 6.96933L8.52064 5.95647L9.22775 5.24937L10.2406 6.26222L9.5335 6.96933ZM10 3.66666C9.91914 3.66666 9.81219 3.73973 9.79812 3.8816L8.803 3.78295C8.86158 3.19204 9.34456 2.66666 10 2.66666V3.66666ZM2.16671 10.5C2.16671 9.84452 2.69208 9.36153 3.283 9.30296L3.38164 10.2981C3.23977 10.3121 3.16671 10.4191 3.16671 10.5H2.16671ZM12.5197 5.68299C12.7803 4.65928 11.9098 3.66666 10.6667 3.66666V2.66666C12.3692 2.66666 13.9549 4.09894 13.4888 5.9297L12.5197 5.68299ZM5.42975 13.9887C3.59898 14.4548 2.16671 12.8691 2.16671 11.1667H3.16671C3.16671 12.4097 4.15933 13.2803 5.18304 13.0196L5.42975 13.9887Z" fill="#1F1F1F"/>
</svg>
